<?xml version="1.0" encoding="UTF-8"?><svg id="Layer_2" xmlns="http://www.w3.org/2000/svg" viewBox="0 0 113.9 28.91"><defs><style>.cls-1{fill:#f26f31;}.cls-2{fill:#00a2b3;}</style></defs><g id="Layer_1-2"><g><path class="cls-1" d="m26.41,17.37c1.11,0,1.66-.36,1.66-1.07v-7.34h1.87v7.34c0,1.69-1.18,2.54-3.54,2.54h-4.87c-2.36,0-3.54-.86-3.54-2.57v-7.31h1.87v7.31c0,.73.56,1.1,1.66,1.1h4.87Z"/><path class="cls-2" d="m98.08,17.37v1.47h-7.42c-2.36,0-3.54-.74-3.54-2.26v-5.36c0-1.52,1.17-2.26,3.53-2.26h7.42v1.47s-7.41,0-7.41,0c-1.11,0-1.66.27-1.66.82v5.31c0,.55.55.82,1.66.82h7.42Z"/><path class="cls-2" d="m77.14.09l-1.08-.09-9.66,15.34-4.11-6.39h-3.38l7.49,10.96L78.4,1.56c20.14,1.86,32.55,6.9,32.55,12.4,0,7.41-24.38,13.88-55.84,13.88-3.73,0-5.75-.08-9.27-.24-.09,0-.17,0-.17,0l-.68,1.03c3.88.16,7.85.3,11.95.3,31.45,0,56.95-6.69,56.95-14.95,0-6.39-15.24-11.86-36.76-13.87Z"/><path class="cls-1" d="m20.91,25.17C8.15,22.43,0,18.26,0,13.6S8.15,4.76,20.91,2.02v2.69C10.29,7.04,4.05,10,4.05,13.6s6.23,6.56,16.86,8.88v2.69Z"/><path class="cls-1" d="m48.88,16.55v-2.16h7.95v-1.48h-7.95v-1.68c0-.54.55-.81,1.65-.81h7.59l-.98-1.47h-6.61c-2.35,0-3.52.74-3.52,2.26v5.34c0,1.52,1.18,2.28,3.53,2.28h7.68v-1.46h-7.68c-1.11,0-1.66-.27-1.66-.82Z"/><path class="cls-2" d="m83.57,18.83h2.03l-7.23-10.95-7.29,10.95h2l1.62-2.47h7.28l1.59,2.47Zm-7.97-3.85l2.77-4.23,2.72,4.23h-5.49Z"/><path class="cls-1" d="m33.16,8.95h7.66c2.74,0,3.17.9,3.17,2.69v.63c0,1.34-.76,2.08-1.74,2.17v.03c1.31.24,1.63.92,1.63,1.78v2.58h-1.79v-2.01c0-1.48-.74-1.67-1.91-1.67h-5.2v3.67h-1.82v-9.88Zm7.05,4.7c1.43,0,2.03-.38,2.03-1.38v-.46c0-1.06-.46-1.4-2.35-1.4h-4.92v3.24h5.23Z"/></g></g></svg>