<?xml version="1.0" encoding="UTF-8"?><svg id="Layer_2" xmlns="http://www.w3.org/2000/svg" viewBox="0 0 44 40"><defs><style>.cls-1{fill:#8e8f90;}</style></defs><g id="Layer_1-2"><g id="Icons"><g id="Color-"><path id="LinkedIn" class="cls-1" d="m44,40h-9.72v-14.06c0-3.68-1.52-6.19-4.87-6.19-2.56,0-3.98,1.7-4.64,3.33-.25.59-.21,1.4-.21,2.22v14.7h-9.63s.12-24.91,0-27.17h9.63v4.26c.57-1.86,3.65-4.53,8.56-4.53,6.1,0,10.88,3.91,10.88,12.33v15.11h0ZM5.18,9.43h-.06C2.01,9.43,0,7.35,0,4.72S2.07,0,5.24,0s5.11,2.03,5.17,4.71c0,2.63-2.01,4.72-5.23,4.72h0Zm-4.07,3.4h8.58v27.17H1.11V12.83h0Z"/></g></g></g></svg>