<?xml version="1.0" encoding="UTF-8"?><svg id="Layer_2" xmlns="http://www.w3.org/2000/svg" viewBox="0 0 48 34"><defs><style>.cls-1{fill:#8e8f90;}</style></defs><g id="Layer_1-2"><g id="Icons"><g id="Color-"><path id="Youtube" class="cls-1" d="m19.04,23.27v-13.58s12.97,6.81,12.97,6.81l-12.97,6.77Zm28.48-15.94s-.47-3.33-1.91-4.8c-1.83-1.93-3.87-1.94-4.81-2.05-6.72-.49-16.79-.49-16.79-.49h-.02S13.91,0,7.2.49c-.94.11-2.98.12-4.81,2.05C.95,4,.48,7.33.48,7.33c0,0-.48,3.91-.48,7.82v3.67c0,3.91.48,7.82.48,7.82,0,0,.47,3.33,1.91,4.8,1.83,1.93,4.23,1.87,5.29,2.07,3.84.37,16.32.49,16.32.49,0,0,10.09-.02,16.8-.5.94-.11,2.98-.12,4.81-2.05,1.44-1.47,1.91-4.8,1.91-4.8,0,0,.48-3.91.48-7.82v-3.67c0-3.91-.48-7.82-.48-7.82h0Z"/></g></g></g></svg>