<?xml version="1.0" encoding="UTF-8"?><svg id="Layer_2" xmlns="http://www.w3.org/2000/svg" viewBox="0 0 48 48"><defs><style>.cls-1{fill:#8e8f90;}</style></defs><g id="Layer_1-2"><g id="Icons"><g id="Color-"><path id="Facebook" class="cls-1" d="m25.64,48H2.65c-1.46,0-2.65-1.19-2.65-2.65V2.65C0,1.19,1.19,0,2.65,0h42.7c1.46,0,2.65,1.19,2.65,2.65v42.7c0,1.46-1.19,2.65-2.65,2.65h-12.23v-18.59h6.24l.93-7.24h-7.17v-4.62c0-2.1.58-3.53,3.59-3.53h3.84v-6.48c-.66-.09-2.94-.29-5.59-.29-5.53,0-9.32,3.38-9.32,9.58v5.34h-6.26v7.24h6.26v18.59h0Z"/></g></g></g></svg>