<?xml version="1.0" encoding="UTF-8"?><svg id="Layer_2" xmlns="http://www.w3.org/2000/svg" viewBox="0 0 48 40"><defs><style>.cls-1{fill:#8e8f90;}</style></defs><g id="Layer_1-2"><g id="Icons"><g id="Color-"><path id="Twitter" class="cls-1" d="m48,4.74c-1.76.8-3.66,1.35-5.65,1.59,2.03-1.25,3.6-3.23,4.33-5.58-1.9,1.16-4.01,2-6.26,2.45-1.79-1.96-4.35-3.19-7.19-3.19-5.43,0-9.84,4.52-9.84,10.1,0,.79.08,1.56.25,2.3C15.46,11.98,8.2,7.96,3.34,1.84c-.85,1.5-1.33,3.23-1.33,5.08,0,3.5,1.74,6.59,4.38,8.4-1.61-.05-3.13-.51-4.46-1.26v.12c0,4.89,3.39,8.98,7.9,9.9-.83.24-1.7.36-2.59.36-.63,0-1.25-.06-1.85-.18,1.25,4.01,4.89,6.93,9.2,7.01-3.37,2.71-7.62,4.33-12.23,4.33-.79,0-1.58-.05-2.35-.14,4.36,2.86,9.54,4.53,15.1,4.53,18.12,0,28.02-15.38,28.02-28.73,0-.44,0-.88-.03-1.31,1.92-1.42,3.6-3.2,4.91-5.23"/></g></g></g></svg>